<mxfile host="app.diagrams.net" modified="2024-01-21T05:28:04.409Z" agent="Mozilla/5.0 (Macintosh; Intel Mac OS X 10_15_7) AppleWebKit/537.36 (KHTML, like Gecko) Chrome/120.0.0.0 Safari/537.36" version="22.1.19" etag="EJLAHyT4lvv1C7cdWzX9" type="github">
  <diagram name="Page-1" id="x78ilssOu449-SHDvIr5">
    <mxGraphModel>
      <root>
        <mxCell id="0" />
        <mxCell id="1" parent="0" />
        <mxCell id="2" value="Person" style="swimlane;fontStyle=1;align=center;verticalAlign=top;childLayout=stackLayout;horizontal=1;startSize=24.6;horizontalStack=0;resizeParent=1;resizeParentMax=0;resizeLast=0;collapsible=0;marginBottom=0;" vertex="1" parent="1">
          <mxGeometry x="1193" y="8" width="245" height="193" as="geometry" />
        </mxCell>
        <mxCell id="3" value="- id: string" style="text;strokeColor=none;fillColor=none;align=left;verticalAlign=top;spacingLeft=4;spacingRight=4;overflow=hidden;rotatable=0;points=[[0,0.5],[1,0.5]];portConstraint=eastwest;" vertex="1" parent="2">
          <mxGeometry y="25" width="245" height="25" as="geometry" />
        </mxCell>
        <mxCell id="4" value="- name: string" style="text;strokeColor=none;fillColor=none;align=left;verticalAlign=top;spacingLeft=4;spacingRight=4;overflow=hidden;rotatable=0;points=[[0,0.5],[1,0.5]];portConstraint=eastwest;" vertex="1" parent="2">
          <mxGeometry y="49" width="245" height="25" as="geometry" />
        </mxCell>
        <mxCell id="5" value="- dateOfBirth: string" style="text;strokeColor=none;fillColor=none;align=left;verticalAlign=top;spacingLeft=4;spacingRight=4;overflow=hidden;rotatable=0;points=[[0,0.5],[1,0.5]];portConstraint=eastwest;" vertex="1" parent="2">
          <mxGeometry y="74" width="245" height="25" as="geometry" />
        </mxCell>
        <mxCell id="6" value="- gender: string" style="text;strokeColor=none;fillColor=none;align=left;verticalAlign=top;spacingLeft=4;spacingRight=4;overflow=hidden;rotatable=0;points=[[0,0.5],[1,0.5]];portConstraint=eastwest;" vertex="1" parent="2">
          <mxGeometry y="98" width="245" height="25" as="geometry" />
        </mxCell>
        <mxCell id="7" value="- contactDetails: ContactDetails" style="text;strokeColor=none;fillColor=none;align=left;verticalAlign=top;spacingLeft=4;spacingRight=4;overflow=hidden;rotatable=0;points=[[0,0.5],[1,0.5]];portConstraint=eastwest;" vertex="1" parent="2">
          <mxGeometry y="123" width="245" height="25" as="geometry" />
        </mxCell>
        <mxCell id="8" value="- family: Family" style="text;strokeColor=none;fillColor=none;align=left;verticalAlign=top;spacingLeft=4;spacingRight=4;overflow=hidden;rotatable=0;points=[[0,0.5],[1,0.5]];portConstraint=eastwest;" vertex="1" parent="2">
          <mxGeometry y="148" width="245" height="25" as="geometry" />
        </mxCell>
        <mxCell id="9" style="line;strokeWidth=1;fillColor=none;align=left;verticalAlign=middle;spacingTop=-1;spacingLeft=3;spacingRight=3;rotatable=0;labelPosition=right;points=[];portConstraint=eastwest;strokeColor=inherit;" vertex="1" parent="2">
          <mxGeometry y="172" width="245" height="12" as="geometry" />
        </mxCell>
        <mxCell id="10" value="ContactDetails" style="swimlane;fontStyle=1;align=center;verticalAlign=top;childLayout=stackLayout;horizontal=1;startSize=26;horizontalStack=0;resizeParent=1;resizeParentMax=0;resizeLast=0;collapsible=0;marginBottom=0;" vertex="1" parent="1">
          <mxGeometry x="8" y="273" width="177" height="125" as="geometry" />
        </mxCell>
        <mxCell id="11" value="- email: string" style="text;strokeColor=none;fillColor=none;align=left;verticalAlign=top;spacingLeft=4;spacingRight=4;overflow=hidden;rotatable=0;points=[[0,0.5],[1,0.5]];portConstraint=eastwest;" vertex="1" parent="10">
          <mxGeometry y="26" width="177" height="26" as="geometry" />
        </mxCell>
        <mxCell id="12" value="- phoneNumber: string" style="text;strokeColor=none;fillColor=none;align=left;verticalAlign=top;spacingLeft=4;spacingRight=4;overflow=hidden;rotatable=0;points=[[0,0.5],[1,0.5]];portConstraint=eastwest;" vertex="1" parent="10">
          <mxGeometry y="52" width="177" height="26" as="geometry" />
        </mxCell>
        <mxCell id="13" value="- address: string" style="text;strokeColor=none;fillColor=none;align=left;verticalAlign=top;spacingLeft=4;spacingRight=4;overflow=hidden;rotatable=0;points=[[0,0.5],[1,0.5]];portConstraint=eastwest;" vertex="1" parent="10">
          <mxGeometry y="78" width="177" height="26" as="geometry" />
        </mxCell>
        <mxCell id="14" style="line;strokeWidth=1;fillColor=none;align=left;verticalAlign=middle;spacingTop=-1;spacingLeft=3;spacingRight=3;rotatable=0;labelPosition=right;points=[];portConstraint=eastwest;strokeColor=inherit;" vertex="1" parent="10">
          <mxGeometry y="104" width="177" height="13" as="geometry" />
        </mxCell>
        <mxCell id="15" value="Family" style="swimlane;fontStyle=1;align=center;verticalAlign=top;childLayout=stackLayout;horizontal=1;startSize=27;horizontalStack=0;resizeParent=1;resizeParentMax=0;resizeLast=0;collapsible=0;marginBottom=0;" vertex="1" parent="1">
          <mxGeometry x="235" y="284" width="305" height="103" as="geometry" />
        </mxCell>
        <mxCell id="16" value="- beneficiary: Beneficiary" style="text;strokeColor=none;fillColor=none;align=left;verticalAlign=top;spacingLeft=4;spacingRight=4;overflow=hidden;rotatable=0;points=[[0,0.5],[1,0.5]];portConstraint=eastwest;" vertex="1" parent="15">
          <mxGeometry y="27" width="305" height="27" as="geometry" />
        </mxCell>
        <mxCell id="17" value="- emergencyContact: EmergencyContact" style="text;strokeColor=none;fillColor=none;align=left;verticalAlign=top;spacingLeft=4;spacingRight=4;overflow=hidden;rotatable=0;points=[[0,0.5],[1,0.5]];portConstraint=eastwest;" vertex="1" parent="15">
          <mxGeometry y="54" width="305" height="27" as="geometry" />
        </mxCell>
        <mxCell id="18" style="line;strokeWidth=1;fillColor=none;align=left;verticalAlign=middle;spacingTop=-1;spacingLeft=3;spacingRight=3;rotatable=0;labelPosition=right;points=[];portConstraint=eastwest;strokeColor=inherit;" vertex="1" parent="15">
          <mxGeometry y="81" width="305" height="14" as="geometry" />
        </mxCell>
        <mxCell id="19" value="Beneficiary" style="swimlane;fontStyle=1;align=center;verticalAlign=top;childLayout=stackLayout;horizontal=1;startSize=27;horizontalStack=0;resizeParent=1;resizeParentMax=0;resizeLast=0;collapsible=0;marginBottom=0;" vertex="1" parent="1">
          <mxGeometry x="196" y="482" width="162" height="103" as="geometry" />
        </mxCell>
        <mxCell id="20" value="- name: string" style="text;strokeColor=none;fillColor=none;align=left;verticalAlign=top;spacingLeft=4;spacingRight=4;overflow=hidden;rotatable=0;points=[[0,0.5],[1,0.5]];portConstraint=eastwest;" vertex="1" parent="19">
          <mxGeometry y="27" width="162" height="27" as="geometry" />
        </mxCell>
        <mxCell id="21" value="- relationship: string" style="text;strokeColor=none;fillColor=none;align=left;verticalAlign=top;spacingLeft=4;spacingRight=4;overflow=hidden;rotatable=0;points=[[0,0.5],[1,0.5]];portConstraint=eastwest;" vertex="1" parent="19">
          <mxGeometry y="54" width="162" height="27" as="geometry" />
        </mxCell>
        <mxCell id="22" style="line;strokeWidth=1;fillColor=none;align=left;verticalAlign=middle;spacingTop=-1;spacingLeft=3;spacingRight=3;rotatable=0;labelPosition=right;points=[];portConstraint=eastwest;strokeColor=inherit;" vertex="1" parent="19">
          <mxGeometry y="81" width="162" height="14" as="geometry" />
        </mxCell>
        <mxCell id="23" value="EmergencyContact" style="swimlane;fontStyle=1;align=center;verticalAlign=top;childLayout=stackLayout;horizontal=1;startSize=26;horizontalStack=0;resizeParent=1;resizeParentMax=0;resizeLast=0;collapsible=0;marginBottom=0;" vertex="1" parent="1">
          <mxGeometry x="408" y="471" width="177" height="125" as="geometry" />
        </mxCell>
        <mxCell id="24" value="- name: string" style="text;strokeColor=none;fillColor=none;align=left;verticalAlign=top;spacingLeft=4;spacingRight=4;overflow=hidden;rotatable=0;points=[[0,0.5],[1,0.5]];portConstraint=eastwest;" vertex="1" parent="23">
          <mxGeometry y="26" width="177" height="26" as="geometry" />
        </mxCell>
        <mxCell id="25" value="- phoneNumber: string" style="text;strokeColor=none;fillColor=none;align=left;verticalAlign=top;spacingLeft=4;spacingRight=4;overflow=hidden;rotatable=0;points=[[0,0.5],[1,0.5]];portConstraint=eastwest;" vertex="1" parent="23">
          <mxGeometry y="52" width="177" height="26" as="geometry" />
        </mxCell>
        <mxCell id="26" value="- relationship: string" style="text;strokeColor=none;fillColor=none;align=left;verticalAlign=top;spacingLeft=4;spacingRight=4;overflow=hidden;rotatable=0;points=[[0,0.5],[1,0.5]];portConstraint=eastwest;" vertex="1" parent="23">
          <mxGeometry y="78" width="177" height="26" as="geometry" />
        </mxCell>
        <mxCell id="27" style="line;strokeWidth=1;fillColor=none;align=left;verticalAlign=middle;spacingTop=-1;spacingLeft=3;spacingRight=3;rotatable=0;labelPosition=right;points=[];portConstraint=eastwest;strokeColor=inherit;" vertex="1" parent="23">
          <mxGeometry y="104" width="177" height="13" as="geometry" />
        </mxCell>
        <mxCell id="28" value="JobDetails" style="swimlane;fontStyle=1;align=center;verticalAlign=top;childLayout=stackLayout;horizontal=1;startSize=24.923076923076923;horizontalStack=0;resizeParent=1;resizeParentMax=0;resizeLast=0;collapsible=0;marginBottom=0;" vertex="1" parent="1">
          <mxGeometry x="589" y="251" width="161" height="170" as="geometry" />
        </mxCell>
        <mxCell id="29" value="- position: string" style="text;strokeColor=none;fillColor=none;align=left;verticalAlign=top;spacingLeft=4;spacingRight=4;overflow=hidden;rotatable=0;points=[[0,0.5],[1,0.5]];portConstraint=eastwest;" vertex="1" parent="28">
          <mxGeometry y="25" width="161" height="25" as="geometry" />
        </mxCell>
        <mxCell id="30" value="- department: string" style="text;strokeColor=none;fillColor=none;align=left;verticalAlign=top;spacingLeft=4;spacingRight=4;overflow=hidden;rotatable=0;points=[[0,0.5],[1,0.5]];portConstraint=eastwest;" vertex="1" parent="28">
          <mxGeometry y="50" width="161" height="25" as="geometry" />
        </mxCell>
        <mxCell id="31" value="- supervisor: string" style="text;strokeColor=none;fillColor=none;align=left;verticalAlign=top;spacingLeft=4;spacingRight=4;overflow=hidden;rotatable=0;points=[[0,0.5],[1,0.5]];portConstraint=eastwest;" vertex="1" parent="28">
          <mxGeometry y="75" width="161" height="25" as="geometry" />
        </mxCell>
        <mxCell id="32" value="- startDate: string" style="text;strokeColor=none;fillColor=none;align=left;verticalAlign=top;spacingLeft=4;spacingRight=4;overflow=hidden;rotatable=0;points=[[0,0.5],[1,0.5]];portConstraint=eastwest;" vertex="1" parent="28">
          <mxGeometry y="100" width="161" height="25" as="geometry" />
        </mxCell>
        <mxCell id="33" value="- endDate: string" style="text;strokeColor=none;fillColor=none;align=left;verticalAlign=top;spacingLeft=4;spacingRight=4;overflow=hidden;rotatable=0;points=[[0,0.5],[1,0.5]];portConstraint=eastwest;" vertex="1" parent="28">
          <mxGeometry y="125" width="161" height="25" as="geometry" />
        </mxCell>
        <mxCell id="34" style="line;strokeWidth=1;fillColor=none;align=left;verticalAlign=middle;spacingTop=-1;spacingLeft=3;spacingRight=3;rotatable=0;labelPosition=right;points=[];portConstraint=eastwest;strokeColor=inherit;" vertex="1" parent="28">
          <mxGeometry y="150" width="161" height="12" as="geometry" />
        </mxCell>
        <mxCell id="35" value="Pay" style="swimlane;fontStyle=1;align=center;verticalAlign=top;childLayout=stackLayout;horizontal=1;startSize=27;horizontalStack=0;resizeParent=1;resizeParentMax=0;resizeLast=0;collapsible=0;marginBottom=0;" vertex="1" parent="1">
          <mxGeometry x="801" y="284" width="149" height="103" as="geometry" />
        </mxCell>
        <mxCell id="36" value="- salary: number" style="text;strokeColor=none;fillColor=none;align=left;verticalAlign=top;spacingLeft=4;spacingRight=4;overflow=hidden;rotatable=0;points=[[0,0.5],[1,0.5]];portConstraint=eastwest;" vertex="1" parent="35">
          <mxGeometry y="27" width="149" height="27" as="geometry" />
        </mxCell>
        <mxCell id="37" value="- frequency: string" style="text;strokeColor=none;fillColor=none;align=left;verticalAlign=top;spacingLeft=4;spacingRight=4;overflow=hidden;rotatable=0;points=[[0,0.5],[1,0.5]];portConstraint=eastwest;" vertex="1" parent="35">
          <mxGeometry y="54" width="149" height="27" as="geometry" />
        </mxCell>
        <mxCell id="38" style="line;strokeWidth=1;fillColor=none;align=left;verticalAlign=middle;spacingTop=-1;spacingLeft=3;spacingRight=3;rotatable=0;labelPosition=right;points=[];portConstraint=eastwest;strokeColor=inherit;" vertex="1" parent="35">
          <mxGeometry y="81" width="149" height="14" as="geometry" />
        </mxCell>
        <mxCell id="39" value="PayStub" style="swimlane;fontStyle=1;align=center;verticalAlign=top;childLayout=stackLayout;horizontal=1;startSize=24.923076923076923;horizontalStack=0;resizeParent=1;resizeParentMax=0;resizeLast=0;collapsible=0;marginBottom=0;" vertex="1" parent="1">
          <mxGeometry x="999" y="251" width="183" height="170" as="geometry" />
        </mxCell>
        <mxCell id="40" value="- id: string" style="text;strokeColor=none;fillColor=none;align=left;verticalAlign=top;spacingLeft=4;spacingRight=4;overflow=hidden;rotatable=0;points=[[0,0.5],[1,0.5]];portConstraint=eastwest;" vertex="1" parent="39">
          <mxGeometry y="25" width="183" height="25" as="geometry" />
        </mxCell>
        <mxCell id="41" value="- date: string" style="text;strokeColor=none;fillColor=none;align=left;verticalAlign=top;spacingLeft=4;spacingRight=4;overflow=hidden;rotatable=0;points=[[0,0.5],[1,0.5]];portConstraint=eastwest;" vertex="1" parent="39">
          <mxGeometry y="50" width="183" height="25" as="geometry" />
        </mxCell>
        <mxCell id="42" value="- hoursWorked: number" style="text;strokeColor=none;fillColor=none;align=left;verticalAlign=top;spacingLeft=4;spacingRight=4;overflow=hidden;rotatable=0;points=[[0,0.5],[1,0.5]];portConstraint=eastwest;" vertex="1" parent="39">
          <mxGeometry y="75" width="183" height="25" as="geometry" />
        </mxCell>
        <mxCell id="43" value="- rate: number" style="text;strokeColor=none;fillColor=none;align=left;verticalAlign=top;spacingLeft=4;spacingRight=4;overflow=hidden;rotatable=0;points=[[0,0.5],[1,0.5]];portConstraint=eastwest;" vertex="1" parent="39">
          <mxGeometry y="100" width="183" height="25" as="geometry" />
        </mxCell>
        <mxCell id="44" value="- netPay: number" style="text;strokeColor=none;fillColor=none;align=left;verticalAlign=top;spacingLeft=4;spacingRight=4;overflow=hidden;rotatable=0;points=[[0,0.5],[1,0.5]];portConstraint=eastwest;" vertex="1" parent="39">
          <mxGeometry y="125" width="183" height="25" as="geometry" />
        </mxCell>
        <mxCell id="45" style="line;strokeWidth=1;fillColor=none;align=left;verticalAlign=middle;spacingTop=-1;spacingLeft=3;spacingRight=3;rotatable=0;labelPosition=right;points=[];portConstraint=eastwest;strokeColor=inherit;" vertex="1" parent="39">
          <mxGeometry y="150" width="183" height="12" as="geometry" />
        </mxCell>
        <mxCell id="46" value="Taxes" style="swimlane;fontStyle=1;align=center;verticalAlign=top;childLayout=stackLayout;horizontal=1;startSize=27;horizontalStack=0;resizeParent=1;resizeParentMax=0;resizeLast=0;collapsible=0;marginBottom=0;" vertex="1" parent="1">
          <mxGeometry x="1232" y="284" width="166" height="103" as="geometry" />
        </mxCell>
        <mxCell id="47" value="- federalTax: number" style="text;strokeColor=none;fillColor=none;align=left;verticalAlign=top;spacingLeft=4;spacingRight=4;overflow=hidden;rotatable=0;points=[[0,0.5],[1,0.5]];portConstraint=eastwest;" vertex="1" parent="46">
          <mxGeometry y="27" width="166" height="27" as="geometry" />
        </mxCell>
        <mxCell id="48" value="- stateTax: number" style="text;strokeColor=none;fillColor=none;align=left;verticalAlign=top;spacingLeft=4;spacingRight=4;overflow=hidden;rotatable=0;points=[[0,0.5],[1,0.5]];portConstraint=eastwest;" vertex="1" parent="46">
          <mxGeometry y="54" width="166" height="27" as="geometry" />
        </mxCell>
        <mxCell id="49" style="line;strokeWidth=1;fillColor=none;align=left;verticalAlign=middle;spacingTop=-1;spacingLeft=3;spacingRight=3;rotatable=0;labelPosition=right;points=[];portConstraint=eastwest;strokeColor=inherit;" vertex="1" parent="46">
          <mxGeometry y="81" width="166" height="14" as="geometry" />
        </mxCell>
        <mxCell id="50" value="TimeClock" style="swimlane;fontStyle=1;align=center;verticalAlign=top;childLayout=stackLayout;horizontal=1;startSize=27;horizontalStack=0;resizeParent=1;resizeParentMax=0;resizeLast=0;collapsible=0;marginBottom=0;" vertex="1" parent="1">
          <mxGeometry x="1449" y="284" width="181" height="103" as="geometry" />
        </mxCell>
        <mxCell id="51" value="- punchInTime: string" style="text;strokeColor=none;fillColor=none;align=left;verticalAlign=top;spacingLeft=4;spacingRight=4;overflow=hidden;rotatable=0;points=[[0,0.5],[1,0.5]];portConstraint=eastwest;" vertex="1" parent="50">
          <mxGeometry y="27" width="181" height="27" as="geometry" />
        </mxCell>
        <mxCell id="52" value="- punchOutTime: string" style="text;strokeColor=none;fillColor=none;align=left;verticalAlign=top;spacingLeft=4;spacingRight=4;overflow=hidden;rotatable=0;points=[[0,0.5],[1,0.5]];portConstraint=eastwest;" vertex="1" parent="50">
          <mxGeometry y="54" width="181" height="27" as="geometry" />
        </mxCell>
        <mxCell id="53" style="line;strokeWidth=1;fillColor=none;align=left;verticalAlign=middle;spacingTop=-1;spacingLeft=3;spacingRight=3;rotatable=0;labelPosition=right;points=[];portConstraint=eastwest;strokeColor=inherit;" vertex="1" parent="50">
          <mxGeometry y="81" width="181" height="14" as="geometry" />
        </mxCell>
        <mxCell id="54" value="Schedule" style="swimlane;fontStyle=1;align=center;verticalAlign=top;childLayout=stackLayout;horizontal=1;startSize=25.363636363636363;horizontalStack=0;resizeParent=1;resizeParentMax=0;resizeLast=0;collapsible=0;marginBottom=0;" vertex="1" parent="1">
          <mxGeometry x="1680" y="262" width="185" height="148" as="geometry" />
        </mxCell>
        <mxCell id="55" value="- startDate: string" style="text;strokeColor=none;fillColor=none;align=left;verticalAlign=top;spacingLeft=4;spacingRight=4;overflow=hidden;rotatable=0;points=[[0,0.5],[1,0.5]];portConstraint=eastwest;" vertex="1" parent="54">
          <mxGeometry y="25" width="185" height="25" as="geometry" />
        </mxCell>
        <mxCell id="56" value="- endDate: string" style="text;strokeColor=none;fillColor=none;align=left;verticalAlign=top;spacingLeft=4;spacingRight=4;overflow=hidden;rotatable=0;points=[[0,0.5],[1,0.5]];portConstraint=eastwest;" vertex="1" parent="54">
          <mxGeometry y="51" width="185" height="25" as="geometry" />
        </mxCell>
        <mxCell id="57" value="- workingDays: string[]" style="text;strokeColor=none;fillColor=none;align=left;verticalAlign=top;spacingLeft=4;spacingRight=4;overflow=hidden;rotatable=0;points=[[0,0.5],[1,0.5]];portConstraint=eastwest;" vertex="1" parent="54">
          <mxGeometry y="76" width="185" height="25" as="geometry" />
        </mxCell>
        <mxCell id="58" value="- workingHours: string[]" style="text;strokeColor=none;fillColor=none;align=left;verticalAlign=top;spacingLeft=4;spacingRight=4;overflow=hidden;rotatable=0;points=[[0,0.5],[1,0.5]];portConstraint=eastwest;" vertex="1" parent="54">
          <mxGeometry y="101" width="185" height="25" as="geometry" />
        </mxCell>
        <mxCell id="59" style="line;strokeWidth=1;fillColor=none;align=left;verticalAlign=middle;spacingTop=-1;spacingLeft=3;spacingRight=3;rotatable=0;labelPosition=right;points=[];portConstraint=eastwest;strokeColor=inherit;" vertex="1" parent="54">
          <mxGeometry y="127" width="185" height="13" as="geometry" />
        </mxCell>
        <mxCell id="60" value="Timesheets" style="swimlane;fontStyle=1;align=center;verticalAlign=top;childLayout=stackLayout;horizontal=1;startSize=25.363636363636363;horizontalStack=0;resizeParent=1;resizeParentMax=0;resizeLast=0;collapsible=0;marginBottom=0;" vertex="1" parent="1">
          <mxGeometry x="1915" y="262" width="183" height="148" as="geometry" />
        </mxCell>
        <mxCell id="61" value="- id: string" style="text;strokeColor=none;fillColor=none;align=left;verticalAlign=top;spacingLeft=4;spacingRight=4;overflow=hidden;rotatable=0;points=[[0,0.5],[1,0.5]];portConstraint=eastwest;" vertex="1" parent="60">
          <mxGeometry y="25" width="183" height="25" as="geometry" />
        </mxCell>
        <mxCell id="62" value="- startDate: string" style="text;strokeColor=none;fillColor=none;align=left;verticalAlign=top;spacingLeft=4;spacingRight=4;overflow=hidden;rotatable=0;points=[[0,0.5],[1,0.5]];portConstraint=eastwest;" vertex="1" parent="60">
          <mxGeometry y="51" width="183" height="25" as="geometry" />
        </mxCell>
        <mxCell id="63" value="- endDate: string" style="text;strokeColor=none;fillColor=none;align=left;verticalAlign=top;spacingLeft=4;spacingRight=4;overflow=hidden;rotatable=0;points=[[0,0.5],[1,0.5]];portConstraint=eastwest;" vertex="1" parent="60">
          <mxGeometry y="76" width="183" height="25" as="geometry" />
        </mxCell>
        <mxCell id="64" value="- hoursWorked: number" style="text;strokeColor=none;fillColor=none;align=left;verticalAlign=top;spacingLeft=4;spacingRight=4;overflow=hidden;rotatable=0;points=[[0,0.5],[1,0.5]];portConstraint=eastwest;" vertex="1" parent="60">
          <mxGeometry y="101" width="183" height="25" as="geometry" />
        </mxCell>
        <mxCell id="65" style="line;strokeWidth=1;fillColor=none;align=left;verticalAlign=middle;spacingTop=-1;spacingLeft=3;spacingRight=3;rotatable=0;labelPosition=right;points=[];portConstraint=eastwest;strokeColor=inherit;" vertex="1" parent="60">
          <mxGeometry y="127" width="183" height="13" as="geometry" />
        </mxCell>
        <mxCell id="66" value="PerformanceReviews" style="swimlane;fontStyle=1;align=center;verticalAlign=top;childLayout=stackLayout;horizontal=1;startSize=25.363636363636363;horizontalStack=0;resizeParent=1;resizeParentMax=0;resizeLast=0;collapsible=0;marginBottom=0;" vertex="1" parent="1">
          <mxGeometry x="2148" y="262" width="172" height="148" as="geometry" />
        </mxCell>
        <mxCell id="67" value="- reviewDate: string" style="text;strokeColor=none;fillColor=none;align=left;verticalAlign=top;spacingLeft=4;spacingRight=4;overflow=hidden;rotatable=0;points=[[0,0.5],[1,0.5]];portConstraint=eastwest;" vertex="1" parent="66">
          <mxGeometry y="25" width="172" height="25" as="geometry" />
        </mxCell>
        <mxCell id="68" value="- reviewer: string" style="text;strokeColor=none;fillColor=none;align=left;verticalAlign=top;spacingLeft=4;spacingRight=4;overflow=hidden;rotatable=0;points=[[0,0.5],[1,0.5]];portConstraint=eastwest;" vertex="1" parent="66">
          <mxGeometry y="51" width="172" height="25" as="geometry" />
        </mxCell>
        <mxCell id="69" value="- comments: string" style="text;strokeColor=none;fillColor=none;align=left;verticalAlign=top;spacingLeft=4;spacingRight=4;overflow=hidden;rotatable=0;points=[[0,0.5],[1,0.5]];portConstraint=eastwest;" vertex="1" parent="66">
          <mxGeometry y="76" width="172" height="25" as="geometry" />
        </mxCell>
        <mxCell id="70" value="- rating: number" style="text;strokeColor=none;fillColor=none;align=left;verticalAlign=top;spacingLeft=4;spacingRight=4;overflow=hidden;rotatable=0;points=[[0,0.5],[1,0.5]];portConstraint=eastwest;" vertex="1" parent="66">
          <mxGeometry y="101" width="172" height="25" as="geometry" />
        </mxCell>
        <mxCell id="71" style="line;strokeWidth=1;fillColor=none;align=left;verticalAlign=middle;spacingTop=-1;spacingLeft=3;spacingRight=3;rotatable=0;labelPosition=right;points=[];portConstraint=eastwest;strokeColor=inherit;" vertex="1" parent="66">
          <mxGeometry y="127" width="172" height="13" as="geometry" />
        </mxCell>
        <mxCell id="72" value="Benefits" style="swimlane;fontStyle=1;align=center;verticalAlign=top;childLayout=stackLayout;horizontal=1;startSize=26;horizontalStack=0;resizeParent=1;resizeParentMax=0;resizeLast=0;collapsible=0;marginBottom=0;" vertex="1" parent="1">
          <mxGeometry x="2370" y="273" width="218" height="125" as="geometry" />
        </mxCell>
        <mxCell id="73" value="- medicalInsurance: boolean" style="text;strokeColor=none;fillColor=none;align=left;verticalAlign=top;spacingLeft=4;spacingRight=4;overflow=hidden;rotatable=0;points=[[0,0.5],[1,0.5]];portConstraint=eastwest;" vertex="1" parent="72">
          <mxGeometry y="26" width="218" height="26" as="geometry" />
        </mxCell>
        <mxCell id="74" value="- dentalInsurance: boolean" style="text;strokeColor=none;fillColor=none;align=left;verticalAlign=top;spacingLeft=4;spacingRight=4;overflow=hidden;rotatable=0;points=[[0,0.5],[1,0.5]];portConstraint=eastwest;" vertex="1" parent="72">
          <mxGeometry y="52" width="218" height="26" as="geometry" />
        </mxCell>
        <mxCell id="75" value="- visionInsurance: boolean" style="text;strokeColor=none;fillColor=none;align=left;verticalAlign=top;spacingLeft=4;spacingRight=4;overflow=hidden;rotatable=0;points=[[0,0.5],[1,0.5]];portConstraint=eastwest;" vertex="1" parent="72">
          <mxGeometry y="78" width="218" height="26" as="geometry" />
        </mxCell>
        <mxCell id="76" style="line;strokeWidth=1;fillColor=none;align=left;verticalAlign=middle;spacingTop=-1;spacingLeft=3;spacingRight=3;rotatable=0;labelPosition=right;points=[];portConstraint=eastwest;strokeColor=inherit;" vertex="1" parent="72">
          <mxGeometry y="104" width="218" height="13" as="geometry" />
        </mxCell>
        <mxCell id="77" value="" style="curved=1;startArrow=none;endArrow=open;endSize=12;exitX=0.0006218112244897959;exitY=0.561740852294794;entryX=0.4987861935028249;entryY=0;" edge="1" parent="1" source="2" target="10">
          <mxGeometry relative="1" as="geometry">
            <Array as="points">
              <mxPoint x="96" y="226" />
            </Array>
          </mxGeometry>
        </mxCell>
        <mxCell id="78" value="" style="curved=1;startArrow=none;endArrow=open;endSize=12;exitX=0.0006218112244897959;exitY=0.5814660782677528;entryX=0.49792520491803277;entryY=0.0024271844660194173;" edge="1" parent="1" source="2" target="15">
          <mxGeometry relative="1" as="geometry">
            <Array as="points">
              <mxPoint x="387" y="226" />
            </Array>
          </mxGeometry>
        </mxCell>
        <mxCell id="79" value="" style="curved=1;startArrow=none;endArrow=open;endSize=12;exitX=0.33052791134966475;exitY=0.9975728155339806;entryX=0.5017481674382716;entryY=-0.0024271844660194173;" edge="1" parent="1" source="15" target="19">
          <mxGeometry relative="1" as="geometry">
            <Array as="points">
              <mxPoint x="277" y="446" />
            </Array>
          </mxGeometry>
        </mxCell>
        <mxCell id="80" value="" style="curved=1;startArrow=none;endArrow=open;endSize=12;exitX=0.6653224984864008;exitY=0.9975728155339806;entryX=0.4997241348870056;entryY=-0.004;" edge="1" parent="1" source="15" target="23">
          <mxGeometry relative="1" as="geometry">
            <Array as="points">
              <mxPoint x="496" y="446" />
            </Array>
          </mxGeometry>
        </mxCell>
        <mxCell id="81" value="" style="curved=1;startArrow=none;endArrow=open;endSize=12;exitX=0.0006218112244897959;exitY=0.6177415770466957;entryX=0.5022078804347826;entryY=-0.0029411764705882353;" edge="1" parent="1" source="2" target="28">
          <mxGeometry relative="1" as="geometry">
            <Array as="points">
              <mxPoint x="670" y="226" />
            </Array>
          </mxGeometry>
        </mxCell>
        <mxCell id="82" value="" style="curved=1;startArrow=none;endArrow=open;endSize=12;exitX=0.0006218112244897959;exitY=0.6731119761285441;entryX=0.4954907718120805;entryY=0.0024271844660194173;" edge="1" parent="1" source="2" target="35">
          <mxGeometry relative="1" as="geometry">
            <Array as="points">
              <mxPoint x="875" y="226" />
            </Array>
          </mxGeometry>
        </mxCell>
        <mxCell id="83" value="" style="curved=1;startArrow=none;endArrow=open;endSize=12;exitX=0.0006218112244897959;exitY=0.8406148895725557;entryX=0.5011313183060109;entryY=-0.0029411764705882353;" edge="1" parent="1" source="2" target="39">
          <mxGeometry relative="1" as="geometry">
            <Array as="points">
              <mxPoint x="1091" y="226" />
            </Array>
          </mxGeometry>
        </mxCell>
        <mxCell id="84" value="" style="curved=1;startArrow=none;endArrow=open;endSize=12;exitX=0.4999362244897959;exitY=0.9974093264248705;entryX=0.502917921686747;entryY=0.0024271844660194173;" edge="1" parent="1" source="2" target="46">
          <mxGeometry relative="1" as="geometry">
            <Array as="points" />
          </mxGeometry>
        </mxCell>
        <mxCell id="85" value="" style="curved=1;startArrow=none;endArrow=open;endSize=12;exitX=0.999250637755102;exitY=0.8423767592758857;entryX=0.4978418508287293;entryY=0.0024271844660194173;" edge="1" parent="1" source="2" target="50">
          <mxGeometry relative="1" as="geometry">
            <Array as="points">
              <mxPoint x="1539" y="226" />
            </Array>
          </mxGeometry>
        </mxCell>
        <mxCell id="86" value="" style="curved=1;startArrow=none;endArrow=open;endSize=12;exitX=0.999250637755102;exitY=0.6670098536813945;entryX=0.49793074324324327;entryY=-0.0016891891891891893;" edge="1" parent="1" source="2" target="54">
          <mxGeometry relative="1" as="geometry">
            <Array as="points">
              <mxPoint x="1772" y="226" />
            </Array>
          </mxGeometry>
        </mxCell>
        <mxCell id="87" value="" style="curved=1;startArrow=none;endArrow=open;endSize=12;exitX=0.999250637755102;exitY=0.6099589404834632;entryX=0.4987832991803279;entryY=-0.0016891891891891893;" edge="1" parent="1" source="2" target="60">
          <mxGeometry relative="1" as="geometry">
            <Array as="points">
              <mxPoint x="2006" y="226" />
            </Array>
          </mxGeometry>
        </mxCell>
        <mxCell id="88" value="" style="curved=1;startArrow=none;endArrow=open;endSize=12;exitX=0.999250637755102;exitY=0.5823929914716365;entryX=0.4989325944767442;entryY=-0.0016891891891891893;" edge="1" parent="1" source="2" target="66">
          <mxGeometry relative="1" as="geometry">
            <Array as="points">
              <mxPoint x="2234" y="226" />
            </Array>
          </mxGeometry>
        </mxCell>
        <mxCell id="89" value="" style="curved=1;startArrow=none;endArrow=open;endSize=12;exitX=0.999250637755102;exitY=0.5647705061397508;entryX=0.49896072247706424;entryY=0;" edge="1" parent="1" source="2" target="72">
          <mxGeometry relative="1" as="geometry">
            <Array as="points">
              <mxPoint x="2479" y="226" />
            </Array>
          </mxGeometry>
        </mxCell>
      </root>
    </mxGraphModel>
  </diagram>
</mxfile>
